<svg xmlns="http://www.w3.org/2000/svg" width="512" height="512" fill="none" viewBox="0 0 24 24" id="world">
  <clipPath id="a">
    <path d="m0 0h24v24h-24z"></path>
  </clipPath>
  <g clip-path="url(#a)">
    <path fill="#000" d="m20.4703 3.4875c-2.2641-2.25-5.2781-3.4875-8.4797-3.4875-3.20154 0-6.21091 1.2375-8.47498 3.4875-2.26875 2.25-3.51562 5.24063-3.51562 8.4234 0 3.1829 1.24687 6.1735 3.51562 8.4235 2.26407 2.2453 5.27344 3.4875 8.47498 3.4875 3.2016 0 6.211-1.2375 8.475-3.4875 2.2688-2.25 3.5156-5.2406 3.5156-8.4235 0-3.18277-1.2468-6.1734-3.5109-8.4234zm.8766 4.59844h-4.4485c-.0047-.01406-.0047-.02813-.0093-.04219-.4313-2.32969-1.0641-4.28906-1.5563-5.60625 2.7234.94688 4.9172 3.01875 6.0141 5.64844zm-10.711-6.11719c.4454-.06094.8953-.08906 1.3547-.08906.3797 0 .75.02344 1.1156.06094.4032.93281 1.3079 3.22968 1.8797 6.14531h-5.80309c.4875-3.24375 1.29849-5.66719 1.45309-6.11719zm-8.7609 9.94215c0-.6656.06562-1.3171.19219-1.94996h5.00156c-.17344 1.87966-.1875 3.68906-.04219 5.39066h-4.5375c-.39844-1.0735-.61406-2.2313-.61406-3.4407zm1.54219 5.3157h3.84375c.23437 1.4297.58594 2.7797 1.06406 4.0312-2.03906-.7875-3.75937-2.2172-4.90781-4.0312zm3.87187-9.14066h-4.65c1.07813-2.58281 3.21094-4.62188 5.85938-5.59219-.35156 1.2-.86719 3.18281-1.20938 5.59219zm6.05154 13.76716c-.4406.0563-.8906.0891-1.3453.0891-.4687 0-.9281-.0328-1.3828-.0938-.7125-1.4812-1.17187-3.0515-1.44375-4.6218h5.91095c-.3328 1.5609-.886 3.1312-1.7391 4.6265zm2.0297-6.5015h-6.45468c-.17343-1.9172-.11718-3.7688.0375-5.39066h6.33748c.2063 1.62656.286 3.47816.0797 5.39066zm.3844 5.8734c.5531-1.2516.9703-2.5875 1.2375-3.9984h3.5765c-1.1296 1.7906-2.8171 3.2015-4.814 3.9984zm1.5094-5.8734.014-.1688c.15-1.6594.1172-3.4125-.0984-5.22186h4.739c.1266.63286.1922 1.28436.1922 1.94996 0 1.2094-.2156 2.3672-.614 3.4407z"></path>
  </g>
</svg>
