<svg width="15" height="15" viewBox="0 0 15 15" fill="none" xmlns="http://www.w3.org/2000/svg">
<path d="M7.5 0C3.35904 0 0 3.44511 0 7.69219C0 11.0376 2.08205 13.8801 4.98766 14.9431C5.00154 14.9478 5.05244 14.9668 5.06632 14.9715C5.10796 14.9858 5.15423 14.9953 5.20049 14.9953C5.44571 14.9953 5.64004 14.7912 5.64004 14.5444C5.64004 14.5302 5.64004 14.5207 5.64004 14.5065C5.64004 14.0984 5.64004 13.5811 5.64004 13.1683C5.16348 13.268 4.4417 13.3629 4.04843 13.1683C3.53948 12.9168 3.28038 12.5941 3.03516 11.9582C2.7298 11.1848 2.02653 10.9712 1.99877 10.8383C1.97101 10.7007 2.74368 10.4967 3.14158 10.9665C3.53948 11.4363 3.94201 12.3758 4.79796 12.2857C5.219 12.243 5.49198 12.1718 5.66317 12.1196C5.69556 11.8159 5.79272 11.441 6.03794 11.1753C4.02529 10.8336 2.68353 9.72319 2.68353 7.54508C2.68353 6.55331 2.96113 5.78456 3.45157 5.21038C3.36829 4.73584 3.22949 3.63493 3.59963 3.25055C3.59963 3.25055 4.12245 2.91838 5.62153 4.00032C6.18137 3.86745 6.80136 3.80101 7.46298 3.80101C7.47687 3.80101 7.48612 3.80101 7.5 3.80101C7.51388 3.80101 7.52313 3.80101 7.53701 3.80101C8.20327 3.80576 8.82326 3.87219 9.37847 4.00032C10.8775 2.91838 11.4004 3.25055 11.4004 3.25055C11.7705 3.63967 11.6317 4.74059 11.5484 5.21038C12.0389 5.78931 12.3165 6.55805 12.3165 7.54508C12.3165 9.72319 10.9793 10.8336 8.96206 11.1753C9.34608 11.5881 9.35996 12.2572 9.35996 12.5324C9.35996 12.7934 9.35996 14.5397 9.35996 14.5492C9.35996 14.8007 9.55891 15 9.79951 15C9.83652 15 9.86891 14.9953 9.90592 14.9858C9.91518 14.9858 9.94294 14.9763 9.95219 14.9715C12.8902 13.9276 15 11.0661 15 7.69693C15 3.44037 11.641 0 7.5 0Z" fill="white"/>
</svg>
