<svg width="40" height="38" viewBox="0 0 40 38" fill="none" xmlns="http://www.w3.org/2000/svg">
<g clip-path="url(#clip0_2239_9224)">
<path d="M39.3351 16.8997L21.3876 0.553702C20.6061 -0.163734 19.4052 -0.163734 18.6238 0.553702L0.676306 16.8997C0.0506294 17.4696 -0.160383 18.3652 0.145104 19.1543C0.450591 19.9433 1.20978 20.4637 2.05628 20.4642H4.9209V36.8218C4.9209 37.4638 5.44155 37.9842 6.08381 37.9842H15.9375C16.5797 37.9842 17.1004 37.4638 17.1004 36.8218V26.8957H22.8955V36.8218C22.8955 37.4638 23.4162 37.9842 24.0584 37.9842H33.9121C34.5543 37.9842 35.075 37.4638 35.075 36.8218V20.4642H37.9435C38.79 20.4637 39.5492 19.9433 39.8547 19.1543C40.1601 18.3652 39.9491 17.4696 39.3235 16.8997H39.3351Z" fill="#DC143C"/>
<path d="M34.7804 2.36285H26.8804L35.9549 10.6114V3.53679C35.958 3.22449 35.8353 2.92407 35.6143 2.70323C35.3934 2.48239 35.0928 2.35971 34.7804 2.36285Z" fill="#DC143C"/>
</g>
<defs>
<clipPath id="clip0_2239_9224">
<rect width="40" height="38" fill="white"/>
</clipPath>
</defs>
</svg>
