<svg width="39" height="39" viewBox="0 0 39 39" fill="none" xmlns="http://www.w3.org/2000/svg">
<circle cx="19.5" cy="19.5" r="19.5" fill="white"/>
<g clip-path="url(#clip0_2281_17537)">
<path d="M28.1606 31.0178L20.415 21.6171L27.8419 14.5978C27.98 14.4577 27.9322 14.053 27.5603 14.053H23.8841C23.6981 14.053 23.5122 14.1464 23.3263 14.328L16.2978 21.2643V5.3891C16.2978 5.1297 16.165 5 15.8994 5H13.1422C12.8766 5 12.7438 5.1297 12.7438 5.3891V31.1734C12.7438 31.4328 12.8766 31.5625 13.1422 31.5625H15.8994C16.165 31.5625 16.2978 31.4328 16.2978 31.1734V25.5185L17.9341 23.9984L23.8044 31.2927C23.9638 31.4743 24.1497 31.5677 24.3622 31.5677H27.9163C28.1022 31.5677 28.2085 31.5158 28.235 31.412L28.1606 31.0178Z" fill="black"/>
</g>
<defs>
<clipPath id="clip0_2281_17537">
<rect width="17" height="26.5625" fill="white" transform="translate(12 5)"/>
</clipPath>
</defs>
</svg>
