<svg width="39" height="39" viewBox="0 0 39 39" fill="none" xmlns="http://www.w3.org/2000/svg">
<g clip-path="url(#clip0_2281_17532)">
<path fill-rule="evenodd" clip-rule="evenodd" d="M19.5 0C30.2623 0 39 8.73768 39 19.5C39 30.2623 30.2623 39 19.5 39C8.73768 39 0 30.2623 0 19.5C0 8.73768 8.73768 0 19.5 0ZM13.4034 30.4589V15.2306H8.34074V30.4589H13.4034ZM31.6557 30.4589V21.7261C31.6557 17.0485 29.1583 14.8725 25.8279 14.8725C23.1425 14.8725 21.9396 16.3494 21.266 17.3867V15.2306H16.2047C16.2718 16.6593 16.2047 30.4589 16.2047 30.4589H21.266V21.9543C21.266 21.4991 21.2987 21.0441 21.4329 20.7188C21.7981 19.8096 22.6316 18.8678 24.0299 18.8678C25.8607 18.8678 26.5941 20.2648 26.5941 22.3111V30.4589H31.6557ZM10.9063 7.8876C9.17414 7.8876 8.04245 9.02637 8.04245 10.519C8.04245 11.9801 9.13971 13.1502 10.8393 13.1502H10.8719C12.6372 13.1502 13.736 11.9801 13.736 10.519C13.7032 9.02637 12.6373 7.8876 10.9063 7.8876Z" fill="white"/>
</g>
<defs>
<clipPath id="clip0_2281_17532">
<rect width="39" height="39" fill="white"/>
</clipPath>
</defs>
</svg>
