<svg width="25" height="25" viewBox="0 0 25 25" fill="none" xmlns="http://www.w3.org/2000/svg">
<path fill-rule="evenodd" clip-rule="evenodd" d="M22.5492 3.37256C22.8448 3.62351 22.9766 4.01788 22.8912 4.39612L19.2453 20.5419C19.1657 20.8941 18.9096 21.1799 18.5682 21.2974C18.2269 21.4149 17.849 21.3473 17.5696 21.1187L12.8052 17.2207L10.8065 20.8184C10.6019 21.1867 10.1955 21.3955 9.77696 21.3473C9.3584 21.2993 9.01002 21.0038 8.89427 20.5987L6.98543 13.9177L2.39991 13.0007C1.94876 12.9103 1.61025 12.5349 1.56712 12.0768C1.52399 11.6188 1.78647 11.1867 2.21283 11.0138L21.4837 3.20133C21.843 3.05564 22.2535 3.12162 22.5492 3.37256ZM6.21551 11.6392L8.01681 11.9994C8.39928 12.0759 8.70697 12.3596 8.81412 12.7347L10.2066 17.6083L11.5895 15.1191C11.7394 14.8493 12.0011 14.6599 12.3044 14.6019C12.6075 14.5439 12.9207 14.6234 13.1597 14.8188L17.5844 18.439L20.4201 5.88051L6.21551 11.6392Z" fill="white"/>
<path fill-rule="evenodd" clip-rule="evenodd" d="M22.43 5.04835C22.8868 4.76081 23.0482 4.17209 22.8021 3.69182C22.5559 3.21153 21.9837 2.99874 21.4836 3.2015L2.21283 11.014C1.78647 11.1869 1.52399 11.6189 1.56712 12.077C1.61025 12.5351 1.94876 12.9106 2.39991 13.0008L7.60824 14.0425C7.86993 14.0948 8.14171 14.0447 8.36754 13.9025L22.43 5.04835Z" fill="white"/>
<path fill-rule="evenodd" clip-rule="evenodd" d="M22.8913 4.39617C22.9977 3.92493 22.7661 3.44236 22.332 3.23054C21.8978 3.01871 21.375 3.13321 21.0691 3.5071L11.694 14.9655C11.3297 15.4107 11.3953 16.0669 11.8406 16.4313L17.5698 21.1188C17.8492 21.3474 18.2271 21.4151 18.5684 21.2976C18.9098 21.1801 19.1659 20.8941 19.2455 20.542L22.8913 4.39617Z" fill="white"/>
</svg>
