<svg xmlns="http://www.w3.org/2000/svg" viewBox="0 0 64 64" id="science-book">
  <path d="M56.328,9.429H35.859a5.1,5.1,0,0,0-4.12,2.108,5.1,5.1,0,0,0-4.121-2.108H7.149a1,1,0,0,0-1,1v2.576h-3.5a1,1,0,0,0-1,1V52.59a1,1,0,0,0,1,1H22.986l1.554,2.5a1,1,0,0,0,.849.471h12.7a1,1,0,0,0,.847-.469l1.562-2.5H61.092a1,1,0,0,0,1-1V14.005a1,1,0,0,0-1-1H57.328V10.429A1,1,0,0,0,56.328,9.429Zm-9.518,2v6.718l-1.44-.9a.995.995,0,0,0-1.057,0l-1.439.9V11.429Zm-10.951,0h5.015v8.519A1,1,0,0,0,42.4,20.8l2.44-1.52,2.439,1.52a1,1,0,0,0,1.529-.849V11.429h6.518v35.2H32.739V14.549A3.123,3.123,0,0,1,35.859,11.429Zm-27.71,0H27.618a3.124,3.124,0,0,1,3.121,3.12V46.627H8.149Zm51.943,3.576V51.59H39.944a1,1,0,0,0-.847.469l-1.562,2.5H25.944l-1.553-2.5a1,1,0,0,0-.849-.471H3.651V15.005h2.5V47.627a1,1,0,0,0,1,1H56.328a1,1,0,0,0,1-1V15.005Z"></path>
  <rect width="11.204" height="2" x="15.755" y="17.234"></rect>
  <rect width="3.265" height="2" x="23.694" y="22.8"></rect>
  <rect width="9.428" height="2" x="11.93" y="22.8"></rect>
  <rect width="15.029" height="2" x="11.93" y="28.364"></rect>
  <rect width="15.029" height="2" x="11.93" y="33.93"></rect>
  <rect width="15.029" height="2" x="11.93" y="39.495"></rect>
  <rect width="15.03" height="2" x="36.519" y="22.8"></rect>
  <rect width="15.03" height="2" x="36.519" y="28.364"></rect>
  <rect width="9.385" height="2" x="42.164" y="33.93"></rect>
  <rect width="3.129" height="2" x="36.519" y="33.93"></rect>
  <rect width="11.291" height="2" x="36.519" y="39.495"></rect>
</svg>
