<svg width="38" height="38" viewBox="0 0 38 38" fill="none" xmlns="http://www.w3.org/2000/svg">
<g clip-path="url(#clip0_2239_9250)">
<path d="M27.1811 25.5788C26.4388 24.8367 25.4322 24.4198 24.3826 24.4198C23.333 24.4198 22.3263 24.8367 21.584 25.5788L20.9744 26.1868C17.6567 23.4057 14.5896 20.3386 11.8085 17.0209L12.4181 16.4113C12.7858 16.0437 13.0774 15.6073 13.2764 15.127C13.4754 14.6467 13.5778 14.1318 13.5778 13.6119C13.5778 13.092 13.4754 12.5772 13.2764 12.0969C13.0774 11.6166 12.7858 11.1802 12.4181 10.8126L9.05828 7.45436C8.31598 6.71228 7.30934 6.29541 6.25973 6.29541C5.21012 6.29541 4.20349 6.71228 3.46119 7.45436L1.61819 9.29736C0.720226 10.2022 0.160626 11.3882 0.0332098 12.6566C-0.0942064 13.925 0.218307 15.1987 0.918357 16.264C6.39746 24.5196 13.4722 31.596 21.7265 37.0769C22.7949 37.7679 24.0665 38.075 25.3325 37.9478C26.5985 37.8206 27.7836 37.2667 28.6932 36.3771L30.5378 34.5341C31.2798 33.7918 31.6967 32.7852 31.6967 31.7356C31.6967 30.686 31.2798 29.6793 30.5378 28.937L27.1811 25.5788Z" fill="#DC143C"/>
<path d="M18.2083 0C17.7884 0 17.3857 0.166815 17.0887 0.463748C16.7918 0.76068 16.625 1.16341 16.625 1.58333C16.625 2.00326 16.7918 2.40599 17.0887 2.70292C17.3857 2.99985 17.7884 3.16667 18.2083 3.16667C22.616 3.1717 26.8417 4.92487 29.9584 8.04157C33.0751 11.1583 34.8283 15.384 34.8333 19.7917C34.8333 20.2116 35.0001 20.6143 35.2971 20.9113C35.594 21.2082 35.9967 21.375 36.4167 21.375C36.8366 21.375 37.2393 21.2082 37.5363 20.9113C37.8332 20.6143 38 20.2116 38 19.7917C37.9937 14.5445 35.9065 9.51408 32.1962 5.80379C28.4859 2.09349 23.4555 0.00628527 18.2083 0Z" fill="#DC143C"/>
<path d="M18.2083 9.50016C20.9368 9.50351 23.5526 10.5889 25.4819 12.5182C27.4113 14.4476 28.4966 17.0633 28.5 19.7918C28.5 20.2118 28.6668 20.6145 28.9637 20.9114C29.2607 21.2083 29.6634 21.3752 30.0833 21.3752C30.5033 21.3752 30.906 21.2083 31.2029 20.9114C31.4999 20.6145 31.6667 20.2118 31.6667 19.7918C31.6625 16.2237 30.2432 12.803 27.7202 10.28C25.1972 7.75696 21.7764 6.33769 18.2083 6.3335C17.7884 6.3335 17.3857 6.50031 17.0887 6.79724C16.7918 7.09418 16.625 7.4969 16.625 7.91683C16.625 8.33676 16.7918 8.73948 17.0887 9.03641C17.3857 9.33335 17.7884 9.50016 18.2083 9.50016Z" fill="#DC143C"/>
<path d="M18.2083 15.8332C19.2581 15.8332 20.265 16.2502 21.0073 16.9925C21.7496 17.7349 22.1667 18.7417 22.1667 19.7915C22.1667 20.2114 22.3335 20.6142 22.6304 20.9111C22.9273 21.208 23.3301 21.3748 23.75 21.3748C24.1699 21.3748 24.5727 21.208 24.8696 20.9111C25.1665 20.6142 25.3333 20.2114 25.3333 19.7915C25.3312 17.9025 24.5799 16.0914 23.2442 14.7557C21.9084 13.4199 20.0974 12.6686 18.2083 12.6665C17.7884 12.6665 17.3857 12.8333 17.0887 13.1303C16.7918 13.4272 16.625 13.8299 16.625 14.2498C16.625 14.6698 16.7918 15.0725 17.0887 15.3694C17.3857 15.6664 17.7884 15.8332 18.2083 15.8332Z" fill="#DC143C"/>
</g>
<defs>
<clipPath id="clip0_2239_9250">
<rect width="38" height="38" fill="white"/>
</clipPath>
</defs>
</svg>
