<svg width="35" height="42" viewBox="0 0 35 42" fill="none" xmlns="http://www.w3.org/2000/svg">
<g clip-path="url(#clip0_2239_9235)">
<path d="M17.2312 20.2314C19.9192 20.2685 22.5039 19.1957 24.3772 17.2653C26.2964 15.3871 27.3599 12.8015 27.3184 10.1149C27.3606 7.42696 26.297 4.83986 24.3772 2.96036C22.5029 1.03197 19.9185 -0.0391955 17.2312 -0.00147797C14.5453 -0.0385202 11.9625 1.03262 10.0895 2.96036C8.16138 4.83594 7.08985 7.42369 7.12691 10.1149C7.09103 12.8047 8.16247 15.3907 10.0895 17.2653C11.9621 19.1941 14.5447 20.2668 17.2312 20.2314Z" fill="#DC143C"/>
<path d="M34.9125 32.2966C34.8461 31.4065 34.7321 30.5205 34.5709 29.6425C34.4118 28.7402 34.1937 27.8493 33.9178 26.9756C33.6388 26.1108 33.2711 25.2772 32.8207 24.4881C32.3757 23.6999 31.8193 22.9801 31.1687 22.3512C30.4815 21.7048 29.6754 21.1982 28.7952 20.8596C27.8285 20.4872 26.8001 20.3016 25.7644 20.3125C25.3375 20.3125 24.9106 20.4877 24.1209 21.0092L22.4134 22.1118C21.7187 22.5236 20.9761 22.848 20.2021 23.0777C18.4449 23.6612 16.5465 23.6612 14.7893 23.0777C14.0148 22.8457 13.272 22.5184 12.578 22.1033L10.8705 20.9963C10.0722 20.4749 9.65814 20.2997 9.22699 20.2997C8.19096 20.2899 7.1625 20.477 6.19613 20.851C5.32279 21.1872 4.52264 21.6894 3.83974 22.3298C3.18916 22.9588 2.63274 23.6785 2.18771 24.4668C1.7375 25.2559 1.36986 26.0895 1.09062 26.9542C0.809633 27.8346 0.587168 28.7327 0.424684 29.6425C0.263413 30.5205 0.149414 31.4064 0.0831791 32.2966C0.0276845 33.1001 -0.00219727 33.9336 -0.00219727 34.7755C-0.00219727 36.9681 0.69362 38.7417 2.06818 40.0538C3.44274 41.3659 5.21857 42.0028 7.39993 42.0028H27.5957C29.7771 42.0028 31.57 41.3489 32.9275 40.0538C34.2849 38.7588 35.0021 36.9681 35.0021 34.7755C35.0021 33.9293 34.968 33.0959 34.9125 32.2966Z" fill="#DC143C"/>
</g>
<defs>
<clipPath id="clip0_2239_9235">
<rect width="35" height="42" fill="white"/>
</clipPath>
</defs>
</svg>
